<svg xmlns="http://www.w3.org/2000/svg" viewBox="0 0 64 64">
  <rect width="64" height="64" rx="14" fill="#0b1118"/>
  <circle cx="46" cy="48" r="16" fill="#20c7b5" opacity=".16"/>
  <path d="M11 39c5 12 21 17 34 8 9-6 11-18 6-27" fill="none" stroke="#ffffff" stroke-opacity=".28" stroke-width="3" stroke-linecap="round"/>
  <path d="M7 24h10" stroke="#ff6542" stroke-width="4" stroke-linecap="round"/>
  <path d="M10 31h7" stroke="#20c7b5" stroke-width="4" stroke-linecap="round"/>
  <path d="M16 23 32 14l16 9-16 10-16-10Z" fill="#f5b642" stroke="#ffd985" stroke-width="3" stroke-linejoin="round"/>
  <path d="M16 23v18l16 9V33L16 23Z" fill="#ff734d" stroke="#ff9d7f" stroke-width="3" stroke-linejoin="round"/>
  <path d="M48 23v18l-16 9V33l16-10Z" fill="#14a99d" stroke="#64e1d3" stroke-width="3" stroke-linejoin="round"/>
  <path d="M32 14v19M16 23l16 10 16-10" fill="none" stroke="#0b1118" stroke-opacity=".42" stroke-width="3" stroke-linecap="round" stroke-linejoin="round"/>
  <path d="M21 41c6-7 18-7 24 0" fill="none" stroke="#20c7b5" stroke-width="5" stroke-linecap="round"/>
  <path d="m45 41-5-5 5-5" fill="none" stroke="#20c7b5" stroke-width="5" stroke-linecap="round" stroke-linejoin="round"/>
  <circle cx="19" cy="42" r="4" fill="#20c7b5" stroke="#0b1118" stroke-width="2"/>
</svg>
